<mxfile host="app.diagrams.net" modified="2022-08-02T09:27:33.088Z" agent="5.0 (Macintosh; Intel Mac OS X 10_15_7) AppleWebKit/537.36 (KHTML, like Gecko) Chrome/103.0.0.0 Safari/537.36" etag="uiRqZ8_Szm05dTAUKJmO" version="20.2.2" type="github">
  <diagram id="Fjy2QGWmCuSCDeq-w75Y" name="Page-1">
    <mxGraphModel dx="1426" dy="794" grid="1" gridSize="10" guides="1" tooltips="1" connect="1" arrows="1" fold="1" page="1" pageScale="1" pageWidth="850" pageHeight="1100" math="0" shadow="0">
      <root>
        <mxCell id="0" />
        <mxCell id="1" parent="0" />
        <mxCell id="DSTOEb6H07aIEcYj_n1a-1" value="" style="shape=table;html=1;whiteSpace=wrap;startSize=0;container=1;collapsible=0;childLayout=tableLayout;" vertex="1" parent="1">
          <mxGeometry x="80" y="160" width="693" height="200" as="geometry" />
        </mxCell>
        <mxCell id="DSTOEb6H07aIEcYj_n1a-2" value="" style="shape=tableRow;horizontal=0;startSize=0;swimlaneHead=0;swimlaneBody=0;top=0;left=0;bottom=0;right=0;collapsible=0;dropTarget=0;fillColor=none;points=[[0,0.5],[1,0.5]];portConstraint=eastwest;" vertex="1" parent="DSTOEb6H07aIEcYj_n1a-1">
          <mxGeometry width="693" height="50" as="geometry" />
        </mxCell>
        <mxCell id="DSTOEb6H07aIEcYj_n1a-3" value="&lt;font style=&quot;font-size: 20px;&quot;&gt;0 ... 8&lt;/font&gt;" style="shape=partialRectangle;html=1;whiteSpace=wrap;connectable=0;fillColor=none;top=0;left=0;bottom=0;right=0;overflow=hidden;" vertex="1" parent="DSTOEb6H07aIEcYj_n1a-2">
          <mxGeometry width="173" height="50" as="geometry">
            <mxRectangle width="173" height="50" as="alternateBounds" />
          </mxGeometry>
        </mxCell>
        <mxCell id="DSTOEb6H07aIEcYj_n1a-4" value="&lt;font style=&quot;font-size: 20px;&quot;&gt;9 .. 16&lt;/font&gt;" style="shape=partialRectangle;html=1;whiteSpace=wrap;connectable=0;fillColor=none;top=0;left=0;bottom=0;right=0;overflow=hidden;" vertex="1" parent="DSTOEb6H07aIEcYj_n1a-2">
          <mxGeometry x="173" width="174" height="50" as="geometry">
            <mxRectangle width="174" height="50" as="alternateBounds" />
          </mxGeometry>
        </mxCell>
        <mxCell id="DSTOEb6H07aIEcYj_n1a-5" value="&lt;font style=&quot;font-size: 20px;&quot;&gt;16 .. 24&lt;/font&gt;" style="shape=partialRectangle;html=1;whiteSpace=wrap;connectable=0;fillColor=none;top=0;left=0;bottom=0;right=0;overflow=hidden;" vertex="1" parent="DSTOEb6H07aIEcYj_n1a-2">
          <mxGeometry x="347" width="173" height="50" as="geometry">
            <mxRectangle width="173" height="50" as="alternateBounds" />
          </mxGeometry>
        </mxCell>
        <mxCell id="DSTOEb6H07aIEcYj_n1a-83" value="&lt;font style=&quot;font-size: 20px;&quot;&gt;24 .. 36&lt;/font&gt;" style="shape=partialRectangle;html=1;whiteSpace=wrap;connectable=0;fillColor=none;top=0;left=0;bottom=0;right=0;overflow=hidden;" vertex="1" parent="DSTOEb6H07aIEcYj_n1a-2">
          <mxGeometry x="520" width="173" height="50" as="geometry">
            <mxRectangle width="173" height="50" as="alternateBounds" />
          </mxGeometry>
        </mxCell>
        <mxCell id="DSTOEb6H07aIEcYj_n1a-6" value="" style="shape=tableRow;horizontal=0;startSize=0;swimlaneHead=0;swimlaneBody=0;top=0;left=0;bottom=0;right=0;collapsible=0;dropTarget=0;fillColor=none;points=[[0,0.5],[1,0.5]];portConstraint=eastwest;" vertex="1" parent="DSTOEb6H07aIEcYj_n1a-1">
          <mxGeometry y="50" width="693" height="50" as="geometry" />
        </mxCell>
        <mxCell id="DSTOEb6H07aIEcYj_n1a-7" value="&lt;pre style=&quot;box-sizing: border-box; margin-top: 0px; margin-bottom: 16px; overflow-wrap: normal; padding: 16px; overflow: auto; line-height: 1.45; background-color: var(--color-canvas-subtle); border-radius: 6px; color: rgb(36, 41, 47);&quot; class=&quot;notranslate&quot;&gt;&lt;code style=&quot;box-sizing: border-box; padding: 0px; margin: 0px; background: transparent; border-radius: 6px; word-break: normal; border: 0px; display: inline; overflow: visible; line-height: inherit; overflow-wrap: normal;&quot;&gt;&lt;font face=&quot;Helvetica&quot; style=&quot;font-size: 16px;&quot;&gt;a64s[0]&lt;/font&gt;&lt;/code&gt;&lt;/pre&gt;" style="shape=partialRectangle;html=1;whiteSpace=wrap;connectable=0;fillColor=none;top=0;left=0;bottom=0;right=0;overflow=hidden;align=center;" vertex="1" parent="DSTOEb6H07aIEcYj_n1a-6">
          <mxGeometry width="173" height="50" as="geometry">
            <mxRectangle width="173" height="50" as="alternateBounds" />
          </mxGeometry>
        </mxCell>
        <mxCell id="DSTOEb6H07aIEcYj_n1a-8" value="&lt;pre style=&quot;background-color: var(--color-canvas-subtle); box-sizing: border-box; margin-top: 0px; margin-bottom: 16px; overflow-wrap: normal; padding: 16px; overflow: auto; line-height: 1.45; border-radius: 6px; color: rgb(36, 41, 47);&quot; class=&quot;notranslate&quot;&gt;&lt;code style=&quot;box-sizing: border-box; padding: 0px; margin: 0px; background: transparent; border-radius: 6px; word-break: normal; border: 0px; display: inline; overflow: visible; line-height: inherit; overflow-wrap: normal;&quot;&gt;&lt;font face=&quot;Helvetica&quot; style=&quot;font-size: 16px;&quot;&gt;a64s[1]&lt;/font&gt;&lt;/code&gt;&lt;/pre&gt;" style="shape=partialRectangle;html=1;whiteSpace=wrap;connectable=0;fillColor=none;top=0;left=0;bottom=0;right=0;overflow=hidden;" vertex="1" parent="DSTOEb6H07aIEcYj_n1a-6">
          <mxGeometry x="173" width="174" height="50" as="geometry">
            <mxRectangle width="174" height="50" as="alternateBounds" />
          </mxGeometry>
        </mxCell>
        <mxCell id="DSTOEb6H07aIEcYj_n1a-9" value="&lt;pre style=&quot;background-color: var(--color-canvas-subtle); box-sizing: border-box; margin-top: 0px; margin-bottom: 16px; overflow-wrap: normal; padding: 16px; overflow: auto; line-height: 1.45; border-radius: 6px; color: rgb(36, 41, 47);&quot; class=&quot;notranslate&quot;&gt;&lt;code style=&quot;box-sizing: border-box; padding: 0px; margin: 0px; background: transparent; border-radius: 6px; word-break: normal; border: 0px; display: inline; overflow: visible; line-height: inherit; overflow-wrap: normal;&quot;&gt;&lt;font face=&quot;Helvetica&quot; style=&quot;font-size: 16px;&quot;&gt;a64s[2]&lt;/font&gt;&lt;/code&gt;&lt;/pre&gt;" style="shape=partialRectangle;html=1;whiteSpace=wrap;connectable=0;fillColor=none;top=0;left=0;bottom=0;right=0;overflow=hidden;" vertex="1" parent="DSTOEb6H07aIEcYj_n1a-6">
          <mxGeometry x="347" width="173" height="50" as="geometry">
            <mxRectangle width="173" height="50" as="alternateBounds" />
          </mxGeometry>
        </mxCell>
        <mxCell id="DSTOEb6H07aIEcYj_n1a-84" value="&lt;pre style=&quot;background-color: var(--color-canvas-subtle); box-sizing: border-box; margin-top: 0px; margin-bottom: 16px; overflow-wrap: normal; padding: 16px; overflow: auto; line-height: 1.45; border-radius: 6px; color: rgb(36, 41, 47);&quot; class=&quot;notranslate&quot;&gt;&lt;code style=&quot;box-sizing: border-box; padding: 0px; margin: 0px; background: transparent; border-radius: 6px; word-break: normal; border: 0px; display: inline; overflow: visible; line-height: inherit; overflow-wrap: normal;&quot;&gt;&lt;font face=&quot;Helvetica&quot; style=&quot;font-size: 16px;&quot;&gt;a64s[3]&lt;/font&gt;&lt;/code&gt;&lt;/pre&gt;" style="shape=partialRectangle;html=1;whiteSpace=wrap;connectable=0;fillColor=none;top=0;left=0;bottom=0;right=0;overflow=hidden;" vertex="1" parent="DSTOEb6H07aIEcYj_n1a-6">
          <mxGeometry x="520" width="173" height="50" as="geometry">
            <mxRectangle width="173" height="50" as="alternateBounds" />
          </mxGeometry>
        </mxCell>
        <mxCell id="DSTOEb6H07aIEcYj_n1a-14" value="" style="shape=tableRow;horizontal=0;startSize=0;swimlaneHead=0;swimlaneBody=0;top=0;left=0;bottom=0;right=0;collapsible=0;dropTarget=0;fillColor=none;points=[[0,0.5],[1,0.5]];portConstraint=eastwest;" vertex="1" parent="DSTOEb6H07aIEcYj_n1a-1">
          <mxGeometry y="100" width="693" height="50" as="geometry" />
        </mxCell>
        <mxCell id="DSTOEb6H07aIEcYj_n1a-15" value="" style="shape=partialRectangle;html=1;whiteSpace=wrap;connectable=0;fillColor=none;top=0;left=0;bottom=0;right=0;overflow=hidden;" vertex="1" parent="DSTOEb6H07aIEcYj_n1a-14">
          <mxGeometry width="173" height="50" as="geometry">
            <mxRectangle width="173" height="50" as="alternateBounds" />
          </mxGeometry>
        </mxCell>
        <mxCell id="DSTOEb6H07aIEcYj_n1a-16" value="" style="shape=partialRectangle;html=1;whiteSpace=wrap;connectable=0;fillColor=none;top=0;left=0;bottom=0;right=0;overflow=hidden;" vertex="1" parent="DSTOEb6H07aIEcYj_n1a-14">
          <mxGeometry x="173" width="174" height="50" as="geometry">
            <mxRectangle width="174" height="50" as="alternateBounds" />
          </mxGeometry>
        </mxCell>
        <mxCell id="DSTOEb6H07aIEcYj_n1a-17" value="" style="shape=partialRectangle;html=1;whiteSpace=wrap;connectable=0;fillColor=none;top=0;left=0;bottom=0;right=0;overflow=hidden;" vertex="1" parent="DSTOEb6H07aIEcYj_n1a-14">
          <mxGeometry x="347" width="173" height="50" as="geometry">
            <mxRectangle width="173" height="50" as="alternateBounds" />
          </mxGeometry>
        </mxCell>
        <mxCell id="DSTOEb6H07aIEcYj_n1a-85" style="shape=partialRectangle;html=1;whiteSpace=wrap;connectable=0;fillColor=none;top=0;left=0;bottom=0;right=0;overflow=hidden;" vertex="1" parent="DSTOEb6H07aIEcYj_n1a-14">
          <mxGeometry x="520" width="173" height="50" as="geometry">
            <mxRectangle width="173" height="50" as="alternateBounds" />
          </mxGeometry>
        </mxCell>
        <mxCell id="DSTOEb6H07aIEcYj_n1a-10" value="" style="shape=tableRow;horizontal=0;startSize=0;swimlaneHead=0;swimlaneBody=0;top=0;left=0;bottom=0;right=0;collapsible=0;dropTarget=0;fillColor=none;points=[[0,0.5],[1,0.5]];portConstraint=eastwest;" vertex="1" parent="DSTOEb6H07aIEcYj_n1a-1">
          <mxGeometry y="150" width="693" height="50" as="geometry" />
        </mxCell>
        <mxCell id="DSTOEb6H07aIEcYj_n1a-11" value="" style="shape=partialRectangle;html=1;whiteSpace=wrap;connectable=0;fillColor=none;top=0;left=0;bottom=0;right=0;overflow=hidden;" vertex="1" parent="DSTOEb6H07aIEcYj_n1a-10">
          <mxGeometry width="173" height="50" as="geometry">
            <mxRectangle width="173" height="50" as="alternateBounds" />
          </mxGeometry>
        </mxCell>
        <mxCell id="DSTOEb6H07aIEcYj_n1a-12" value="" style="shape=partialRectangle;html=1;whiteSpace=wrap;connectable=0;fillColor=none;top=0;left=0;bottom=0;right=0;overflow=hidden;" vertex="1" parent="DSTOEb6H07aIEcYj_n1a-10">
          <mxGeometry x="173" width="174" height="50" as="geometry">
            <mxRectangle width="174" height="50" as="alternateBounds" />
          </mxGeometry>
        </mxCell>
        <mxCell id="DSTOEb6H07aIEcYj_n1a-13" value="" style="shape=partialRectangle;html=1;whiteSpace=wrap;connectable=0;fillColor=none;top=0;left=0;bottom=0;right=0;overflow=hidden;pointerEvents=1;" vertex="1" parent="DSTOEb6H07aIEcYj_n1a-10">
          <mxGeometry x="347" width="173" height="50" as="geometry">
            <mxRectangle width="173" height="50" as="alternateBounds" />
          </mxGeometry>
        </mxCell>
        <mxCell id="DSTOEb6H07aIEcYj_n1a-86" style="shape=partialRectangle;html=1;whiteSpace=wrap;connectable=0;fillColor=none;top=0;left=0;bottom=0;right=0;overflow=hidden;pointerEvents=1;" vertex="1" parent="DSTOEb6H07aIEcYj_n1a-10">
          <mxGeometry x="520" width="173" height="50" as="geometry">
            <mxRectangle width="173" height="50" as="alternateBounds" />
          </mxGeometry>
        </mxCell>
        <mxCell id="DSTOEb6H07aIEcYj_n1a-87" value="&lt;font style=&quot;font-size: 18px;&quot;&gt;Cells&lt;/font&gt;" style="text;html=1;strokeColor=none;fillColor=none;align=center;verticalAlign=middle;whiteSpace=wrap;rounded=0;fontSize=20;" vertex="1" parent="1">
          <mxGeometry y="170" width="60" height="30" as="geometry" />
        </mxCell>
        <mxCell id="DSTOEb6H07aIEcYj_n1a-89" value="&lt;font style=&quot;font-size: 16px;&quot;&gt;一个word是256-bit&lt;br&gt;我们用36个cells来表达word a和b，每个cell都保存一个8-bit的值&lt;br&gt;把每个word拆开丢给四个64-bit的limbs（分支）&lt;br&gt;然后这四个分支用a64s[idx], idx in (0, 1, 2, 3)来表示&lt;br&gt;&lt;/font&gt;" style="text;html=1;strokeColor=none;fillColor=none;align=center;verticalAlign=middle;whiteSpace=wrap;rounded=0;fontSize=18;" vertex="1" parent="1">
          <mxGeometry x="160" y="40" width="530" height="100" as="geometry" />
        </mxCell>
      </root>
    </mxGraphModel>
  </diagram>
</mxfile>
